<svg id="Layer_1" data-name="Layer 1" xmlns="http://www.w3.org/2000/svg" viewBox="0 0 217.77 174.96"><defs><style>.cls-1{fill:#faa51c;}.cls-2{fill:#fff;}</style></defs><title>WH Logo</title><path class="cls-1" d="M102.66,7.91A40.23,40.23,0,1,1,62.59,48.3,40.22,40.22,0,0,1,102.66,7.91m0-4.39a44.58,44.58,0,0,0-44.45,44.8A44.58,44.58,0,0,0,103,92.76a44,44,0,0,0,17.34-3.58A44.56,44.56,0,0,0,144,65.34,43.85,43.85,0,0,0,147.46,48a44.31,44.31,0,0,0-3.57-17.36,44.9,44.9,0,0,0-9.62-14.15A44.45,44.45,0,0,0,120.06,7a44,44,0,0,0-17.4-3.44Z" transform="translate(-10.16 -3.51)"/><path class="cls-2" d="M50.3,130a69,69,0,0,0,5.6,4.25L69.1,91.26H59.47v.11a4.3,4.3,0,0,1,3.17,4.38A14.85,14.85,0,0,1,62,99.19l-8,25.5L45.53,97.81a30.16,30.16,0,0,1-1.19-5.75,2.06,2.06,0,0,0,.13-.8H35.65v.11c1.37.59,2.07,2,2.07,4.13a14.92,14.92,0,0,1-.7,4.38l-7.68,24.94L20.15,96a12.81,12.81,0,0,1-.94-3.81,6.85,6.85,0,0,0,.08-.93H10.16v.11a10.8,10.8,0,0,1,4,6.2l8.44,26.25a26.7,26.7,0,0,0,1.69,4.43,8.46,8.46,0,0,0,2.1,2.66c.9.73,2.44,1.83,4.64,3.29l9.76-31.63,7.68,23.94A9,9,0,0,0,50.3,130Z" transform="translate(-10.16 -3.51)"/><path class="cls-2" d="M66,118.06a14.3,14.3,0,0,0,4.19,10.54c2.87,3,6.77,4.53,11.67,4.53a16.6,16.6,0,0,0,8-2,15.59,15.59,0,0,0,6-5.62,14.35,14.35,0,0,0,2.25-7.71,14.63,14.63,0,0,0-2.18-7.92,14.8,14.8,0,0,0-5.82-5.31,15.39,15.39,0,0,0-7.62-1.71,18.07,18.07,0,0,0-9.1,2.28,13.73,13.73,0,0,0-5.53,5.69A17.12,17.12,0,0,0,66,118.06Zm9.4-8.68a10.63,10.63,0,0,1,6.35-2.5,8.43,8.43,0,0,1,7.21,3.53,13.32,13.32,0,0,1,2.72,8.28,11.32,11.32,0,0,1-2.36,7.19,8.91,8.91,0,0,1-7,3.19,1.18,1.18,0,0,0-.5.12A8.09,8.09,0,0,1,77,127.5a10.87,10.87,0,0,1-3.45-4.31,13.92,13.92,0,0,1-1.25-5.94Q72.4,111.76,75.37,109.38Z" transform="translate(-10.16 -3.51)"/><path class="cls-2" d="M126.91,107a15.88,15.88,0,0,1,7.92,1.93v-5.38a26.37,26.37,0,0,0-6.75-.74,19.07,19.07,0,0,0-8.82,1.9,6.43,6.43,0,0,0-2.91,2.8V103a16.63,16.63,0,0,0-5.85.89,7.4,7.4,0,0,0-3.79,3.66v-4.68h-.24a2.31,2.31,0,0,1-1.19.53,13.91,13.91,0,0,1-2.34.15c-1,0-1.92,0-2.66.06H98.65v.25a3.8,3.8,0,0,1,1.9,1.94,10.84,10.84,0,0,1,.4,3.56v18a10.35,10.35,0,0,1-.33,2.89,3.49,3.49,0,0,1-2,2v.25h10.51v-.25a4.53,4.53,0,0,1-2-2,8.13,8.13,0,0,1-.46-3V116c0-4.42,1.32-7.06,3.94-7.94a13.82,13.82,0,0,1,2.55-.37,4.24,4.24,0,0,1,2.76.74,8.18,8.18,0,0,0-.43,2.7,5.83,5.83,0,0,0,1.79,4.57,17.78,17.78,0,0,0,5.15,3l5.15,1.81a12,12,0,0,1,3.78,2,3,3,0,0,1,1.13,2.82c-.24,2.33-2.64,3.59-7.14,3.75a21.19,21.19,0,0,1-11.43-3.5l2.07,6.06a22.2,22.2,0,0,0,8.32,1.5,18.81,18.81,0,0,0,9.56-2.49,8,8,0,0,0,4.3-7.32,6.59,6.59,0,0,0-1.33-4.06,9.66,9.66,0,0,0-3.55-2.89,48.76,48.76,0,0,0-5.25-1.93,30.63,30.63,0,0,1-5.15-2,3,3,0,0,1-1.66-2.22C121.15,108.06,123,107,126.91,107Z" transform="translate(-10.16 -3.51)"/><path class="cls-2" d="M140,93.31a8.63,8.63,0,0,1,.44,2.94v31.38c0,2.29-.82,3.79-2.44,4.5v.25h10.5v-.25a7.17,7.17,0,0,1-1.38-1,4.08,4.08,0,0,1-.66-1.12,5.33,5.33,0,0,1-.33-1.34,17.41,17.41,0,0,1-.07-1.87V115.07q0-4.3,1.72-6.18c1.15-1.26,2.94-1.88,5.4-1.88h.07q7.13,0,7.13,9.12v11.25c0,2.33-.77,3.92-2.32,4.75v.25h10.39v-.25a4.28,4.28,0,0,1-2-1.9,10,10,0,0,1-.43-3.59v-12.7q0-11.31-10.62-11.12a14.55,14.55,0,0,0-5.31,1,8.92,8.92,0,0,0-4,2.94V90.12H146c-.54.76-1.59,1.14-3.12,1.14H138v.11A3.68,3.68,0,0,1,140,93.31Z" transform="translate(-10.16 -3.51)"/><path class="cls-2" d="M173.84,99.81a3.71,3.71,0,0,0,2.77-1.15,3.83,3.83,0,0,0,1.17-2.78,3.74,3.74,0,0,0-1.12-2.75A3.85,3.85,0,0,0,173.84,92a3.73,3.73,0,0,0-2.79,1.14,4,4,0,0,0-1.1,2.73,3.88,3.88,0,0,0,1.14,2.75A3.63,3.63,0,0,0,173.84,99.81Z" transform="translate(-10.16 -3.51)"/><path class="cls-2" d="M179.47,132.13a3.67,3.67,0,0,1-2.06-2.18A15.47,15.47,0,0,1,177,126V102.57h-.23c-.61.63-2.1,1-4.52,1.12a28.4,28.4,0,0,0-3.3-.13v.25q2.29,1.2,2.29,5v18.46c0,2.4-.76,4-2.29,4.86v.25h10.37Z" transform="translate(-10.16 -3.51)"/><path class="cls-2" d="M191.09,144.94a4.28,4.28,0,0,1-2.05-2.18,18.56,18.56,0,0,1-.38-4.75V114.94a7.46,7.46,0,0,1,2.37-5.31,8.82,8.82,0,0,1,6.44-2.5,8.57,8.57,0,0,1,7.25,3.62c1.79,2.42,2.51,5.52,2.12,9.32q-.43,4.5-3.08,6.69a10.81,10.81,0,0,1-6.66,2.31,14.82,14.82,0,0,1-6.82-1.8l3.25,5.11a17.38,17.38,0,0,0,5,.75,14,14,0,0,0,10-3.91,14.67,14.67,0,0,0,4.7-9.9,16.38,16.38,0,0,0-1.42-8.63,13.11,13.11,0,0,0-5.05-5.76,14.46,14.46,0,0,0-7.21-2.11,15,15,0,0,0-6.24,1.06,10.27,10.27,0,0,0-4.64,3.37v-4.43h-.14c-.56.46-1.94.74-4.11.87a37.28,37.28,0,0,0-3.82-.13v.25c1.62.88,2.46,2.72,2.46,5.5v31a4.82,4.82,0,0,1-2.46,4.62v.26h10.5Z" transform="translate(-10.16 -3.51)"/><path class="cls-2" d="M71.92,136.35a3.46,3.46,0,0,1,2.34,2.52,18.81,18.81,0,0,1,.47,4.53v9.39H52.16V144a20.41,20.41,0,0,1,.51-5.13,3.7,3.7,0,0,1,2.19-2.55v-.14H43v.14c1.78.7,2.7,2.76,2.7,6.17v28.7c0,3.29-.92,5.25-2.7,5.87v.25H54.86v-.25c-1.79-.58-2.7-2.53-2.7-5.87v-14H74.73v14q0,4.93-2.81,5.87v.25h12v-.25c-1.89-.62-2.82-2.58-2.82-5.87V143.4a14.26,14.26,0,0,1,.62-4.84,3.72,3.72,0,0,1,2.2-2.21v-.14h-12Z" transform="translate(-10.16 -3.51)"/><path class="cls-2" d="M109.45,172.43a6.45,6.45,0,0,1-1.08-4.21V157.34c0-3.25-1.14-5.65-3.39-7.22a14.68,14.68,0,0,0-8.56-2.33h-1.1c-.27,0-.59.07-1,.1s-.79.09-1.16.16a6.42,6.42,0,0,1-.94.1l-4.11,6.25A18.91,18.91,0,0,1,96.55,152a9.68,9.68,0,0,1,4.07.9,3,3,0,0,1,1.91,2.85,3.35,3.35,0,0,1-.33,1.53,2.57,2.57,0,0,1-.77,1,9,9,0,0,1-2.82,1.28c-1.14.31-2.69.69-4.68,1.13A23.47,23.47,0,0,0,89.55,162q-5.7,2.64-5.57,7.57a7.73,7.73,0,0,0,3,6,11.55,11.55,0,0,0,7.79,2.53,23.93,23.93,0,0,0,3.13-.25l3.69-4.63a24.59,24.59,0,0,1-4.75.82A8.61,8.61,0,0,1,92,172.59a4.28,4.28,0,0,1-1.81-3.68,3.71,3.71,0,0,1,1.64-3.48,19.78,19.78,0,0,1,5.35-1.84,20.17,20.17,0,0,0,5.45-1.87v9.75a5.81,5.81,0,0,0,2,4.78c1.32,1.06,3.39,1.72,6.23,2l2.82-4.31C111.57,173.79,110.18,173.29,109.45,172.43Z" transform="translate(-10.16 -3.51)"/><path class="cls-2" d="M149.66,148.53v.25a2.86,2.86,0,0,1,2,2.69,10.14,10.14,0,0,1-.94,3.56l-7.56,16.19L134.55,152c-1.09-2.21-1.57-3.61-1.45-4.18h-.24a8.94,8.94,0,0,1-3.13.73v-.62a17.75,17.75,0,0,0-5,.63h-.46l.07.13c-.16.05-.33.09-.48.15a7.44,7.44,0,0,0-3.79,3.66v-4.68h-.24a2.24,2.24,0,0,1-1.17.52,13.76,13.76,0,0,1-2.35.16c-1,0-1.9,0-2.66.06H112v.25a3.73,3.73,0,0,1,1.9,1.94,11,11,0,0,1,.42,3.56v17.94a10.86,10.86,0,0,1-.34,2.91,3.5,3.5,0,0,1-2,2v.25h10.5v-.25a4.51,4.51,0,0,1-2-2,8.18,8.18,0,0,1-.48-3V161q0-6.61,4-7.93a13.65,13.65,0,0,1,2.57-.37,5.09,5.09,0,0,1,2.21.42c.12.22.23.45.35.7l8.7,19.07q1.23,2.86,6.44,5.62l14.17-29.94Z" transform="translate(-10.16 -3.51)"/><path class="cls-2" d="M205.49,161.34a51.26,51.26,0,0,0-5.26-1.94,29.44,29.44,0,0,1-5.15-2,3,3,0,0,1-1.65-2.22q-.19-3.18,5.62-3.18a15.81,15.81,0,0,1,7.94,1.94v-5.38a26.11,26.11,0,0,0-6.76-.74,19,19,0,0,0-8.84,1.9,6.62,6.62,0,0,0-3.71,6.4,5.84,5.84,0,0,0,1.78,4.57,17.26,17.26,0,0,0,5.15,3l5.15,1.82a12.18,12.18,0,0,1,3.79,2,3.09,3.09,0,0,1,1.13,2.81c-.26,2.33-2.63,3.58-7.13,3.75a21.8,21.8,0,0,1-10.4-2.84l.22-.41h-.13c-.11.09-.24.16-.36.24-.26-.16-.52-.31-.77-.49l.28.82a14.78,14.78,0,0,1-4.09,1.81,24.7,24.7,0,0,1-5.3.87,8.8,8.8,0,0,0-1.59-.12q-5.53-.51-8.26-4.07a12.62,12.62,0,0,1-2.73-7.88h23a14.77,14.77,0,0,0-1.76-7.49,12.56,12.56,0,0,0-5.06-5,14.44,14.44,0,0,0-7.13-1.79q-7.56.07-11.73,4.57a14.5,14.5,0,0,0-4,10.5A13.74,13.74,0,0,0,163,174.1a20.05,20.05,0,0,0,12.63,4.12,24.71,24.71,0,0,0,8.63-1.63l2.35-4.46,1.53,4.46a22,22,0,0,0,8.3,1.5,18.79,18.79,0,0,0,9.57-2.49,8,8,0,0,0,4.31-7.31,6.66,6.66,0,0,0-1.33-4.07A9.85,9.85,0,0,0,205.49,161.34Zm-38-7.77a9.15,9.15,0,0,1,5.44-1.73,8.66,8.66,0,0,1,5.34,1.69,6.14,6.14,0,0,1,2.54,4.75H164.68A6.68,6.68,0,0,1,167.54,153.57Z" transform="translate(-10.16 -3.51)"/><path class="cls-2" d="M224.23,152.66a4.43,4.43,0,0,1,3.57,1.25h.12v-5.75h-.12a10.77,10.77,0,0,1-3.7.37h-4.6v-9.25h-2.45q0,10.07-7.43,11.06v2.32h4.24v15.43a11.85,11.85,0,0,0,2,7c1.32,1.92,3.39,2.88,6.18,2.88a18.24,18.24,0,0,0,2.56-.13l3.31-4.43a11.5,11.5,0,0,1-2.81.62,6.92,6.92,0,0,1-3.06-.82c-1.7-1.15-2.55-3.72-2.55-7.68V152.66Z" transform="translate(-10.16 -3.51)"/><path class="cls-2" d="M105.88,77.29c1.74-1.14,12.45-8.52,15.77-18.71,0,0-.29,7.27-11,21.12a1.94,1.94,0,0,1-.23.29c28.41-3.3,21.17-43.54,21.17-43.54-7.6,3.34-16.94,11.44-16.94,11.44C101.6,59,103.93,71.7,105.88,77.29Z" transform="translate(-10.16 -3.51)"/><path class="cls-2" d="M95.22,80c-.06-.1-.14-.19-.21-.29C84.3,65.85,84,58.58,84,58.58c3.34,10.19,14,17.57,15.76,18.71,2-5.59,4.29-18.28-8.77-29.4,0,0-9.33-8.1-16.93-11.44C74.08,36.45,66.84,76.69,95.22,80Z" transform="translate(-10.16 -3.51)"/><path class="cls-2" d="M102.66,50.46A9.65,9.65,0,1,0,93,40.82,9.64,9.64,0,0,0,102.66,50.46Z" transform="translate(-10.16 -3.51)"/></svg>