<?xml version="1.0" encoding="utf-8"?>
<!-- Generator: Adobe Illustrator 24.0.1, SVG Export Plug-In . SVG Version: 6.00 Build 0)  -->
<svg version="1.1" id="Layer_1" xmlns="http://www.w3.org/2000/svg" x="0px" y="0px"
     viewBox="0 0 175 175" style="enable-background:new 0 0 175 175;" xml:space="preserve">
<style type="text/css">
	.st0{fill:#FAA51C;}
	.st1{fill:#FFFFFF;}
</style>
<title>WH Logo</title>
<path class="st0" d="M87.1,8.6c43.6-0.2,79,35,79.2,78.6c0.2,43.6-35,79-78.6,79.2c-43.6,0.2-79-35-79.2-78.6
	C8.4,44.3,43.6,8.8,87.1,8.6C87.1,8.6,87.1,8.6,87.1,8.6 M87.1,0C38.9,0.2-0.1,39.4,0,87.7c0,0.1,0,0.1,0,0.2
	c0.2,48.3,39.4,87.3,87.7,87.1c0,0,0.1,0,0.1,0c11.7,0,23.3-2.4,34-7c21-8.9,37.6-25.7,46.4-46.7c4.5-10.8,6.9-22.3,6.8-34
	c0-11.7-2.4-23.3-7-34c-4.5-10.4-10.9-19.8-18.9-27.7c-8-7.9-17.5-14.3-27.9-18.6C110.5,2.3,98.9,0,87.1,0L87.1,0z"/>
<path class="st1" d="M93.5,144.6c3.4-2.2,24.4-16.7,30.9-36.7c0,0-0.6,14.3-21.6,41.4c-0.1,0.2-0.3,0.4-0.5,0.6
	c55.7-6.5,41.5-85.4,41.5-85.4C129,71.1,110.6,87,110.6,87C85.1,108.8,89.6,133.7,93.5,144.6z"/>
<path class="st1" d="M72.6,149.9c-0.1-0.2-0.3-0.4-0.4-0.6c-21-27.2-21.6-41.4-21.6-41.4c6.5,20,27.4,34.4,30.9,36.7
	c3.9-11,8.4-35.8-17.2-57.6c0,0-18.3-15.9-33.2-22.4C31.1,64.6,16.9,143.5,72.6,149.9z"/>
<path class="st1" d="M87.1,92c10.4,0,18.9-8.5,18.9-18.9c0-10.4-8.5-18.9-18.9-18.9c-10.4,0-18.9,8.5-18.9,18.9
	C68.2,83.6,76.7,92,87.1,92C87.1,92,87.1,92,87.1,92z"/>
</svg>
